<?xml version="1.0" encoding="UTF-8" standalone="no"?>
<!-- Created with Inkscape (http://www.inkscape.org/) -->

<svg
   width="90mm"
   height="45mm"
   viewBox="0 0 90 45"
   version="1.1"
   id="svg5"
   inkscape:version="1.1.2 (b8e25be8, 2022-02-05)"
   sodipodi:docname="bergTop.svg"
   xmlns:inkscape="http://www.inkscape.org/namespaces/inkscape"
   xmlns:sodipodi="http://sodipodi.sourceforge.net/DTD/sodipodi-0.dtd"
   xmlns="http://www.w3.org/2000/svg"
   xmlns:svg="http://www.w3.org/2000/svg">
  <sodipodi:namedview
     id="namedview7"
     pagecolor="#505050"
     bordercolor="#eeeeee"
     borderopacity="1"
     inkscape:pageshadow="0"
     inkscape:pageopacity="0"
     inkscape:pagecheckerboard="0"
     inkscape:document-units="mm"
     showgrid="false"
     inkscape:zoom="0.98846534"
     inkscape:cx="123.92948"
     inkscape:cy="201.82802"
     inkscape:window-width="1404"
     inkscape:window-height="855"
     inkscape:window-x="0"
     inkscape:window-y="23"
     inkscape:window-maximized="0"
     inkscape:current-layer="layer1" />
  <defs
     id="defs2" />
  <g
     inkscape:label="Laag 1"
     inkscape:groupmode="layer"
     id="layer1">
    <path
       style="fill:#f9f9f9;stroke-width:0.0677463"
       d=""
       id="path2743"
       transform="scale(0.26458333)" />
    <path
       style="fill:#f9f9f9;stroke-width:0.0677463"
       d=""
       id="path2860"
       transform="scale(0.26458333)" />
    <path
       style="fill:#f9f9f9;stroke-width:0.0677463"
       d=""
       id="path2899"
       transform="scale(0.26458333)" />
    <path
       style="fill:#f9f9f9;stroke-width:0.0677463"
       d=""
       id="path2938"
       transform="scale(0.26458333)" />
    <path
       style="fill:#ffffff;stroke:#000000;stroke-width:0.39897px;stroke-linecap:butt;stroke-linejoin:miter;stroke-opacity:0"
       d="m 38.976907,4.2710829 c 0,0 -20.911179,23.6884521 -33.9806675,33.8172981 -13.0694873,10.128847 10.7012245,-1.329427 16.1935615,-6.716138 5.492338,-5.386711 -6.759798,10.773437 -6.759798,10.773437 0,0 -2.640547,5.8092 11.195914,-10.139703 13.836465,-15.948904 -0.316862,5.175466 -0.316862,5.175466 0,0 -6.126071,8.872237 7.921636,-4.964222 14.047695,-13.836459 0.10563,-0.09319 0.10563,-0.09319 0,0 -6.029528,11.43009 -2.188455,7.774878 3.841066,-3.655212 6.690892,-12.204679 6.690892,-12.204679 l -1.301007,9.10705 c 0,0 -0.309765,5.265987 3.097637,-5.265986 3.407387,-10.531959 0.312758,-0.951452 0.312758,-0.951452 0,0 0.382455,3.73958 0.849895,4.504487 0.467455,0.764907 2.80467,-9.00896 2.80467,-9.00896 0,0 4.504488,9.731374 6.586744,10.241322 2.082256,0.509934 0.04252,-7.054198 0.04252,-7.054198 0,0 3.39962,8.031587 4.631967,7.946585 1.232363,-0.08505 -2.379723,-8.753986 -2.379723,-8.753986 0,0 9.051468,8.626507 10.75127,8.796495 1.699803,0.169972 -5.01442,-6.756732 -5.01442,-6.756732 0,0 8.966467,5.354381 10.538789,6.926704 1.572323,1.572323 -2.804685,-7.904092 -2.804685,-7.904092 l 9.773641,9.442185 c 0,0 7.277401,6.575962 -4.910042,-9.8201 -12.187444,-16.396047 17.974281,13.678007 17.974281,13.678007 0,0 -1.139837,-5.26077 -19.114118,-22.796668 C 51.704658,2.4890084 54.86111,5.0317077 53.808959,3.8918713 52.756808,2.7520499 50.30178,2.050611 50.30178,2.050611 c 0,0 -8.9717,-1.2581629 -11.324837,2.220502 z"
       id="path4231" />
  </g>
</svg>
